<?xml version="1.0" encoding="utf-8"?>
<!-- Generator: Adobe Illustrator 24.3.0, SVG Export Plug-In . SVG Version: 6.00 Build 0)  -->
<svg version="1.1" id="Layer_1" xmlns="http://www.w3.org/2000/svg" xmlns:xlink="http://www.w3.org/1999/xlink" x="0px" y="0px"
	 viewBox="0 0 273 52" style="enable-background:new 0 0 273 52;" xml:space="preserve">
<g>
	<path d="M45.5,2.1v49.2H44V5.6L23.7,51.3h-1.4L1.8,5.6v45.7H0.3V2.1h1.4L23,49.4L44,2.1H45.5z"/>
	<path d="M62.2,48.6c-3.7-2.2-6.5-5.2-8.6-9.2c-2.1-3.9-3.1-8.4-3.1-13.4c0-5,1-9.5,3.1-13.4c2.1-3.9,4.9-7,8.6-9.2
		c3.7-2.2,7.8-3.3,12.5-3.3c4.7,0,8.8,1.1,12.5,3.3c3.7,2.2,6.5,5.2,8.6,9.2c2.1,3.9,3.1,8.4,3.1,13.4c0,5-1,9.5-3.1,13.4
		c-2.1,3.9-4.9,7-8.6,9.2c-3.7,2.2-7.8,3.3-12.5,3.3C70.1,51.9,65.9,50.8,62.2,48.6z M86.2,47.6c3.5-2,6.2-4.8,8.2-8.6
		c2-3.7,3-8.1,3-13c0-4.9-1-9.3-3-13c-2-3.7-4.7-6.6-8.2-8.6c-3.5-2-7.3-3-11.5-3c-4.2,0-8.1,1-11.5,3c-3.5,2-6.2,4.8-8.2,8.6
		c-2,3.7-3,8.1-3,13c0,4.9,1,9.3,3,13c2,3.7,4.7,6.6,8.2,8.6c3.5,2,7.3,3,11.5,3C78.9,50.6,82.8,49.6,86.2,47.6z"/>
	<path d="M137.2,7.3c4.6,4.4,6.8,10.7,6.8,18.7c0,8.1-2.3,14.3-6.8,18.7c-4.6,4.4-11.2,6.6-19.9,6.6H104V0.6h13.3
		C126,0.6,132.7,2.8,137.2,7.3z M136.2,43.7c4.3-4.2,6.4-10.1,6.4-17.7c0-7.6-2.1-13.5-6.4-17.7c-4.3-4.2-10.6-6.3-18.9-6.3h-11.9
		V50h11.9C125.6,50,131.9,47.9,136.2,43.7z"/>
	<path d="M150.5,1.9v23.4h21.2v1.3h-21.2V50h23.3v1.3h-24.8V0.6h24.8v1.3H150.5z"/>
	<path d="M179.6,50h19.4v1.3h-20.9V0.6h1.4V50z"/>
	<path d="M218.3,0.3v51h-16v-51H218.3z"/>
	<path d="M272.6,51.3h-16l-16.9-25.6v25.6h-16v-51h16l16.9,26.1V0.3h16V51.3z"/>
</g>
</svg>
